<svg viewBox="-16 -32 880 192" width="880" height="192" xmlns="http://www.w3.org/2000/svg"><desc>Generated with space-invaders-contributions</desc><style>:root{--cb:#1b1f230a;--cs:#00ff41;--ce:#161b22;--c0:#161b22;--c1:#01311f;--c2:#034525;--c3:#0f6d31;--c4:#00c647}.c{shape-rendering:geometricPrecision;fill:var(--ce);stroke-width:1px;stroke:var(--cb);animation:none 22500ms linear infinite;width:12px;height:12px}@keyframes c0{17.32%{fill:var(--c1)}17.34%,100%{fill:var(--ce)}}.c.c0{fill:var(--c1);animation-name:c0}@keyframes c1{18.51%{fill:var(--c1)}18.53%,100%{fill:var(--ce)}}.c.c1{fill:var(--c1);animation-name:c1}@keyframes c2{48.14%{fill:var(--c1)}48.16%,100%{fill:var(--ce)}}.c.c2{fill:var(--c1);animation-name:c2}@keyframes c3{47.55%{fill:var(--c1)}47.57%,100%{fill:var(--ce)}}.c.c3{fill:var(--c1);animation-name:c3}@keyframes c4{17.77%{fill:var(--c1)}17.79%,100%{fill:var(--ce)}}.c.c4{fill:var(--c1);animation-name:c4}@keyframes c5{18.06%{fill:var(--c1)}18.08%,100%{fill:var(--ce)}}.c.c5{fill:var(--c1);animation-name:c5}@keyframes c6{20.43%{fill:var(--c1)}20.45%,100%{fill:var(--ce)}}.c.c6{fill:var(--c1);animation-name:c6}@keyframes c7{46.21%{fill:var(--c1)}46.23%,100%{fill:var(--ce)}}.c.c7{fill:var(--c1);animation-name:c7}@keyframes c8{21.18%{fill:var(--c1)}21.2%,100%{fill:var(--ce)}}.c.c8{fill:var(--c1);animation-name:c8}@keyframes c9{44.73%{fill:var(--c1)}44.75%,100%{fill:var(--ce)}}.c.c9{fill:var(--c1);animation-name:c9}@keyframes ca{43.55%{fill:var(--c1)}43.57%,100%{fill:var(--ce)}}.c.ca{fill:var(--c1);animation-name:ca}@keyframes cb{23.99%{fill:var(--c1)}24.01%,100%{fill:var(--ce)}}.c.cb{fill:var(--c1);animation-name:cb}@keyframes cc{41.18%{fill:var(--c1)}41.2%,100%{fill:var(--ce)}}.c.cc{fill:var(--c1);animation-name:cc}@keyframes cd{41.47%{fill:var(--c1)}41.49%,100%{fill:var(--ce)}}.c.cd{fill:var(--c1);animation-name:cd}@keyframes ce{42.66%{fill:var(--c1)}42.68%,100%{fill:var(--ce)}}.c.ce{fill:var(--c1);animation-name:ce}@keyframes cf{23.55%{fill:var(--c1)}23.57%,100%{fill:var(--ce)}}.c.cf{fill:var(--c1);animation-name:cf}@keyframes cg{22.95%{fill:var(--c1)}22.97%,100%{fill:var(--ce)}}.c.cg{fill:var(--c1);animation-name:cg}@keyframes ch{25.03%{fill:var(--c1)}25.05%,100%{fill:var(--ce)}}.c.ch{fill:var(--c1);animation-name:ch}@keyframes ci{40.73%{fill:var(--c1)}40.75%,100%{fill:var(--ce)}}.c.ci{fill:var(--c1);animation-name:ci}@keyframes cj{41.92%{fill:var(--c1)}41.94%,100%{fill:var(--ce)}}.c.cj{fill:var(--c1);animation-name:cj}@keyframes ck{42.21%{fill:var(--c1)}42.23%,100%{fill:var(--ce)}}.c.ck{fill:var(--c1);animation-name:ck}@keyframes cl{25.47%{fill:var(--c1)}25.49%,100%{fill:var(--ce)}}.c.cl{fill:var(--c1);animation-name:cl}@keyframes cm{39.99%{fill:var(--c1)}40.01%,100%{fill:var(--ce)}}.c.cm{fill:var(--c1);animation-name:cm}@keyframes cn{40.29%{fill:var(--c1)}40.31%,100%{fill:var(--ce)}}.c.cn{fill:var(--c1);animation-name:cn}@keyframes co{25.92%{fill:var(--c1)}25.94%,100%{fill:var(--ce)}}.c.co{fill:var(--c1);animation-name:co}@keyframes cp{72.14%{fill:var(--c4)}72.16%,100%{fill:var(--ce)}}.c.cp{fill:var(--c4);animation-name:cp}@keyframes cq{52.88%{fill:var(--c1)}52.9%,100%{fill:var(--ce)}}.c.cq{fill:var(--c1);animation-name:cq}@keyframes cr{27.55%{fill:var(--c1)}27.57%,100%{fill:var(--ce)}}.c.cr{fill:var(--c1);animation-name:cr}@keyframes cs{26.95%{fill:var(--c1)}26.97%,100%{fill:var(--ce)}}.c.cs{fill:var(--c1);animation-name:cs}@keyframes ct{62.8%{fill:var(--c2)}62.82%,100%{fill:var(--ce)}}.c.ct{fill:var(--c2);animation-name:ct}@keyframes cu{29.32%{fill:var(--c1)}29.34%,100%{fill:var(--ce)}}.c.cu{fill:var(--c1);animation-name:cu}@keyframes cv{29.62%{fill:var(--c1)}29.64%,100%{fill:var(--ce)}}.c.cv{fill:var(--c1);animation-name:cv}@keyframes cw{27.99%{fill:var(--c1)}28.01%,100%{fill:var(--ce)}}.c.cw{fill:var(--c1);animation-name:cw}@keyframes cx{28.58%{fill:var(--c1)}28.6%,100%{fill:var(--ce)}}.c.cx{fill:var(--c1);animation-name:cx}@keyframes cy{30.36%{fill:var(--c1)}30.38%,100%{fill:var(--ce)}}.c.cy{fill:var(--c1);animation-name:cy}@keyframes cz{63.69%{fill:var(--c3)}63.71%,100%{fill:var(--ce)}}.c.cz{fill:var(--c3);animation-name:cz}@keyframes c10{54.21%{fill:var(--c2)}54.23%,100%{fill:var(--ce)}}.c.c10{fill:var(--c2);animation-name:c10}@keyframes c11{60.88%{fill:var(--c2)}60.9%,100%{fill:var(--ce)}}.c.c11{fill:var(--c2);animation-name:c11}@keyframes c12{37.18%{fill:var(--c1)}37.2%,100%{fill:var(--ce)}}.c.c12{fill:var(--c1);animation-name:c12}@keyframes c13{33.03%{fill:var(--c1)}33.05%,100%{fill:var(--ce)}}.c.c13{fill:var(--c1);animation-name:c13}@keyframes c14{31.25%{fill:var(--c1)}31.27%,100%{fill:var(--ce)}}.c.c14{fill:var(--c1);animation-name:c14}@keyframes c15{65.77%{fill:var(--c3)}65.79%,100%{fill:var(--ce)}}.c.c15{fill:var(--c3);animation-name:c15}@keyframes c16{36.73%{fill:var(--c1)}36.75%,100%{fill:var(--ce)}}.c.c16{fill:var(--c1);animation-name:c16}@keyframes c17{33.47%{fill:var(--c1)}33.49%,100%{fill:var(--ce)}}.c.c17{fill:var(--c1);animation-name:c17}@keyframes c18{57.77%{fill:var(--c2)}57.79%,100%{fill:var(--ce)}}.c.c18{fill:var(--c2);animation-name:c18}@keyframes c19{56.29%{fill:var(--c2)}56.31%,100%{fill:var(--ce)}}.c.c19{fill:var(--c2);animation-name:c19}@keyframes c1a{55.69%{fill:var(--c2)}55.71%,100%{fill:var(--ce)}}.c.c1a{fill:var(--c2);animation-name:c1a}@keyframes c1b{55.1%{fill:var(--c2)}55.12%,100%{fill:var(--ce)}}.c.c1b{fill:var(--c2);animation-name:c1b}@keyframes c1c{77.77%{fill:var(--c4)}77.79%,100%{fill:var(--ce)}}.c.c1c{fill:var(--c4);animation-name:c1c}@keyframes c1d{59.4%{fill:var(--c2)}59.42%,100%{fill:var(--ce)}}.c.c1d{fill:var(--c2);animation-name:c1d}@keyframes c1e{33.92%{fill:var(--c1)}33.94%,100%{fill:var(--ce)}}.c.c1e{fill:var(--c1);animation-name:c1e}@keyframes c1f{56.73%{fill:var(--c2)}56.75%,100%{fill:var(--ce)}}.c.c1f{fill:var(--c2);animation-name:c1f}@keyframes c1g{68.88%{fill:var(--c3)}68.9%,100%{fill:var(--ce)}}.c.c1g{fill:var(--c3);animation-name:c1g}.p{shape-rendering:geometricPrecision;fill:var(--cs);animation:none linear 22500ms infinite;animation-name:ship;transform:translate(-4.8px,139.2px)scale(0.0500)}.b{shape-rendering:geometricPrecision;fill:var(--cs);opacity:0;animation:none linear 22500ms infinite}@keyframes ship{0%,0.44%,99.56%{transform:translate(-4.8px,139.2px)scale(0.0500)}16.44%,16.89%{transform:translate(571.2px,139.2px)scale(0.0500)}17.33%,17.78%,47.11%,47.56%{transform:translate(555.2px,139.2px)scale(0.0500)}19.56%,20%{transform:translate(619.2px,139.2px)scale(0.0500)}21.78%,22.22%,23.56%,24%,41.33%,41.78%{transform:translate(683.2px,139.2px)scale(0.0500)}22.67%,23.11%,40.44%,40.89%{transform:translate(667.2px,139.2px)scale(0.0500)}24.89%,25.33%,71.56%,72%{transform:translate(715.2px,139.2px)scale(0.0500)}25.78%,26.22%,28.44%,28.89%,60.89%,61.78%{transform:translate(731.2px,139.2px)scale(0.0500)}26.67%,28%,29.33%,29.78%{transform:translate(747.2px,139.2px)scale(0.0500)}30.67%,32%,59.11%,59.56%,64.89%,65.33%{transform:translate(779.2px,139.2px)scale(0.0500)}33.33%,33.78%{transform:translate(827.2px,139.2px)scale(0.0500)}34.22%,34.67%,56%,56.44%,57.78%,58.22%,66.22%,68.44%,74.67%,76.44%{transform:translate(811.2px,139.2px)scale(0.0500)}35.11%,35.56%,54.67%,55.56%,56.89%,57.33%,63.56%,64.44%,68.89%,69.33%{transform:translate(795.2px,139.2px)scale(0.0500)}38.22%,39.56%,51.56%,52%{transform:translate(699.2px,139.2px)scale(0.0500)}43.11%,44%{transform:translate(635.2px,139.2px)scale(0.0500)}44.89%,45.78%{transform:translate(603.2px,139.2px)scale(0.0500)}96.89%,97.33%{transform:translate(75.2px,139.2px)scale(0.0500)}}@keyframes b0{15.99%{opacity:0;transform:translate(565.4px,149.4px)}16%{opacity:1;transform:translate(565.4px,149.4px)}17.33%{opacity:1;transform:translate(565.4px,5.4px)}17.34%,100%{opacity:0;transform:translate(565.4px,5.4px)}}.b.b0{animation-name:b0}@keyframes b1{17.32%{opacity:0;transform:translate(565.4px,149.4px)}17.33%{opacity:1;transform:translate(565.4px,149.4px)}18.52%{opacity:1;transform:translate(565.4px,21.4px)}18.53%,100%{opacity:0;transform:translate(565.4px,21.4px)}}.b.b1{animation-name:b1}@keyframes b2{47.55%{opacity:0;transform:translate(565.4px,149.4px)}47.56%{opacity:1;transform:translate(565.4px,149.4px)}48.15%{opacity:1;transform:translate(565.4px,85.4px)}48.16%,100%{opacity:0;transform:translate(565.4px,85.4px)}}.b.b2{animation-name:b2}@keyframes b3{47.1%{opacity:0;transform:translate(565.4px,149.4px)}47.11%{opacity:1;transform:translate(565.4px,149.4px)}47.56%{opacity:1;transform:translate(565.4px,101.4px)}47.57%,100%{opacity:0;transform:translate(565.4px,101.4px)}}.b.b3{animation-name:b3}@keyframes b4{16.43%{opacity:0;transform:translate(581.4px,149.4px)}16.44%{opacity:1;transform:translate(581.4px,149.4px)}17.78%{opacity:1;transform:translate(581.4px,5.4px)}17.79%,100%{opacity:0;transform:translate(581.4px,5.4px)}}.b.b4{animation-name:b4}@keyframes b5{16.88%{opacity:0;transform:translate(581.4px,149.4px)}16.89%{opacity:1;transform:translate(581.4px,149.4px)}18.07%{opacity:1;transform:translate(581.4px,21.4px)}18.08%,100%{opacity:0;transform:translate(581.4px,21.4px)}}.b.b5{animation-name:b5}@keyframes b6{19.1%{opacity:0;transform:translate(613.4px,149.4px)}19.11%{opacity:1;transform:translate(613.4px,149.4px)}20.44%{opacity:1;transform:translate(613.4px,5.4px)}20.45%,100%{opacity:0;transform:translate(613.4px,5.4px)}}.b.b6{animation-name:b6}@keyframes b7{45.77%{opacity:0;transform:translate(613.4px,149.4px)}45.78%{opacity:1;transform:translate(613.4px,149.4px)}46.22%{opacity:1;transform:translate(613.4px,101.4px)}46.23%,100%{opacity:0;transform:translate(613.4px,101.4px)}}.b.b7{animation-name:b7}@keyframes b8{19.99%{opacity:0;transform:translate(629.4px,149.4px)}20%{opacity:1;transform:translate(629.4px,149.4px)}21.19%{opacity:1;transform:translate(629.4px,21.4px)}21.2%,100%{opacity:0;transform:translate(629.4px,21.4px)}}.b.b8{animation-name:b8}@keyframes b9{43.99%{opacity:0;transform:translate(645.4px,149.4px)}44%{opacity:1;transform:translate(645.4px,149.4px)}44.74%{opacity:1;transform:translate(645.4px,69.4px)}44.75%,100%{opacity:0;transform:translate(645.4px,69.4px)}}.b.b9{animation-name:b9}@keyframes ba{43.1%{opacity:0;transform:translate(645.4px,149.4px)}43.11%{opacity:1;transform:translate(645.4px,149.4px)}43.56%{opacity:1;transform:translate(645.4px,101.4px)}43.57%,100%{opacity:0;transform:translate(645.4px,101.4px)}}.b.ba{animation-name:ba}@keyframes bb{22.66%{opacity:0;transform:translate(677.4px,149.4px)}22.67%{opacity:1;transform:translate(677.4px,149.4px)}24%{opacity:1;transform:translate(677.4px,5.4px)}24.01%,100%{opacity:0;transform:translate(677.4px,5.4px)}}.b.bb{animation-name:bb}@keyframes bc{40.43%{opacity:0;transform:translate(677.4px,149.4px)}40.44%{opacity:1;transform:translate(677.4px,149.4px)}41.19%{opacity:1;transform:translate(677.4px,69.4px)}41.2%,100%{opacity:0;transform:translate(677.4px,69.4px)}}.b.bc{animation-name:bc}@keyframes bd{40.88%{opacity:0;transform:translate(677.4px,149.4px)}40.89%{opacity:1;transform:translate(677.4px,149.4px)}41.48%{opacity:1;transform:translate(677.4px,85.4px)}41.49%,100%{opacity:0;transform:translate(677.4px,85.4px)}}.b.bd{animation-name:bd}@keyframes be{42.21%{opacity:0;transform:translate(677.4px,149.4px)}42.22%{opacity:1;transform:translate(677.4px,149.4px)}42.67%{opacity:1;transform:translate(677.4px,101.4px)}42.68%,100%{opacity:0;transform:translate(677.4px,101.4px)}}.b.be{animation-name:be}@keyframes bf{22.21%{opacity:0;transform:translate(693.4px,149.4px)}22.22%{opacity:1;transform:translate(693.4px,149.4px)}23.56%{opacity:1;transform:translate(693.4px,5.4px)}23.57%,100%{opacity:0;transform:translate(693.4px,5.4px)}}.b.bf{animation-name:bf}@keyframes bg{21.77%{opacity:0;transform:translate(693.4px,149.4px)}21.78%{opacity:1;transform:translate(693.4px,149.4px)}22.96%{opacity:1;transform:translate(693.4px,21.4px)}22.97%,100%{opacity:0;transform:translate(693.4px,21.4px)}}.b.bg{animation-name:bg}@keyframes bh{23.99%{opacity:0;transform:translate(693.4px,149.4px)}24%{opacity:1;transform:translate(693.4px,149.4px)}25.04%{opacity:1;transform:translate(693.4px,37.4px)}25.05%,100%{opacity:0;transform:translate(693.4px,37.4px)}}.b.bh{animation-name:bh}@keyframes bi{39.99%{opacity:0;transform:translate(693.4px,149.4px)}40%{opacity:1;transform:translate(693.4px,149.4px)}40.74%{opacity:1;transform:translate(693.4px,69.4px)}40.75%,100%{opacity:0;transform:translate(693.4px,69.4px)}}.b.bi{animation-name:bi}@keyframes bj{41.32%{opacity:0;transform:translate(693.4px,149.4px)}41.33%{opacity:1;transform:translate(693.4px,149.4px)}41.93%{opacity:1;transform:translate(693.4px,85.4px)}41.94%,100%{opacity:0;transform:translate(693.4px,85.4px)}}.b.bj{animation-name:bj}@keyframes bk{41.77%{opacity:0;transform:translate(693.4px,149.4px)}41.78%{opacity:1;transform:translate(693.4px,149.4px)}42.22%{opacity:1;transform:translate(693.4px,101.4px)}42.23%,100%{opacity:0;transform:translate(693.4px,101.4px)}}.b.bk{animation-name:bk}@keyframes bl{24.43%{opacity:0;transform:translate(709.4px,149.4px)}24.44%{opacity:1;transform:translate(709.4px,149.4px)}25.48%{opacity:1;transform:translate(709.4px,37.4px)}25.49%,100%{opacity:0;transform:translate(709.4px,37.4px)}}.b.bl{animation-name:bl}@keyframes bm{39.1%{opacity:0;transform:translate(709.4px,149.4px)}39.11%{opacity:1;transform:translate(709.4px,149.4px)}40%{opacity:1;transform:translate(709.4px,53.4px)}40.01%,100%{opacity:0;transform:translate(709.4px,53.4px)}}.b.bm{animation-name:bm}@keyframes bn{39.55%{opacity:0;transform:translate(709.4px,149.4px)}39.56%{opacity:1;transform:translate(709.4px,149.4px)}40.3%{opacity:1;transform:translate(709.4px,69.4px)}40.31%,100%{opacity:0;transform:translate(709.4px,69.4px)}}.b.bn{animation-name:bn}@keyframes bo{24.88%{opacity:0;transform:translate(725.4px,149.4px)}24.89%{opacity:1;transform:translate(725.4px,149.4px)}25.93%{opacity:1;transform:translate(725.4px,37.4px)}25.94%,100%{opacity:0;transform:translate(725.4px,37.4px)}}.b.bo{animation-name:bo}@keyframes bp{71.55%{opacity:0;transform:translate(725.4px,149.4px)}71.56%{opacity:1;transform:translate(725.4px,149.4px)}72.15%{opacity:1;transform:translate(725.4px,85.4px)}72.16%,100%{opacity:0;transform:translate(725.4px,85.4px)}}.b.bp{animation-name:bp}@keyframes bq{52.43%{opacity:0;transform:translate(725.4px,149.4px)}52.44%{opacity:1;transform:translate(725.4px,149.4px)}52.89%{opacity:1;transform:translate(725.4px,101.4px)}52.9%,100%{opacity:0;transform:translate(725.4px,101.4px)}}.b.bq{animation-name:bq}@keyframes br{26.21%{opacity:0;transform:translate(741.4px,149.4px)}26.22%{opacity:1;transform:translate(741.4px,149.4px)}27.56%{opacity:1;transform:translate(741.4px,5.4px)}27.57%,100%{opacity:0;transform:translate(741.4px,5.4px)}}.b.br{animation-name:br}@keyframes bs{25.77%{opacity:0;transform:translate(741.4px,149.4px)}25.78%{opacity:1;transform:translate(741.4px,149.4px)}26.96%{opacity:1;transform:translate(741.4px,21.4px)}26.97%,100%{opacity:0;transform:translate(741.4px,21.4px)}}.b.bs{animation-name:bs}@keyframes bt{61.77%{opacity:0;transform:translate(741.4px,149.4px)}61.78%{opacity:1;transform:translate(741.4px,149.4px)}62.81%{opacity:1;transform:translate(741.4px,37.4px)}62.82%,100%{opacity:0;transform:translate(741.4px,37.4px)}}.b.bt{animation-name:bt}@keyframes bu{28.43%{opacity:0;transform:translate(741.4px,149.4px)}28.44%{opacity:1;transform:translate(741.4px,149.4px)}29.33%{opacity:1;transform:translate(741.4px,53.4px)}29.34%,100%{opacity:0;transform:translate(741.4px,53.4px)}}.b.bu{animation-name:bu}@keyframes bv{28.88%{opacity:0;transform:translate(741.4px,149.4px)}28.89%{opacity:1;transform:translate(741.4px,149.4px)}29.63%{opacity:1;transform:translate(741.4px,69.4px)}29.64%,100%{opacity:0;transform:translate(741.4px,69.4px)}}.b.bv{animation-name:bv}@keyframes bw{26.66%{opacity:0;transform:translate(757.4px,149.4px)}26.67%{opacity:1;transform:translate(757.4px,149.4px)}28%{opacity:1;transform:translate(757.4px,5.4px)}28.01%,100%{opacity:0;transform:translate(757.4px,5.4px)}}.b.bw{animation-name:bw}@keyframes bx{27.55%{opacity:0;transform:translate(757.4px,149.4px)}27.56%{opacity:1;transform:translate(757.4px,149.4px)}28.59%{opacity:1;transform:translate(757.4px,37.4px)}28.6%,100%{opacity:0;transform:translate(757.4px,37.4px)}}.b.bx{animation-name:bx}@keyframes by{29.77%{opacity:0;transform:translate(757.4px,149.4px)}29.78%{opacity:1;transform:translate(757.4px,149.4px)}30.37%{opacity:1;transform:translate(757.4px,85.4px)}30.38%,100%{opacity:0;transform:translate(757.4px,85.4px)}}.b.by{animation-name:by}@keyframes bz{62.66%{opacity:0;transform:translate(773.4px,149.4px)}62.67%{opacity:1;transform:translate(773.4px,149.4px)}63.7%{opacity:1;transform:translate(773.4px,37.4px)}63.71%,100%{opacity:0;transform:translate(773.4px,37.4px)}}.b.bz{animation-name:bz}@keyframes b10{53.77%{opacity:0;transform:translate(773.4px,149.4px)}53.78%{opacity:1;transform:translate(773.4px,149.4px)}54.22%{opacity:1;transform:translate(773.4px,101.4px)}54.23%,100%{opacity:0;transform:translate(773.4px,101.4px)}}.b.b10{animation-name:b10}@keyframes b11{59.55%{opacity:0;transform:translate(789.4px,149.4px)}59.56%{opacity:1;transform:translate(789.4px,149.4px)}60.89%{opacity:1;transform:translate(789.4px,5.4px)}60.9%,100%{opacity:0;transform:translate(789.4px,5.4px)}}.b.b11{animation-name:b11}@keyframes b12{35.99%{opacity:0;transform:translate(789.4px,149.4px)}36%{opacity:1;transform:translate(789.4px,149.4px)}37.19%{opacity:1;transform:translate(789.4px,21.4px)}37.2%,100%{opacity:0;transform:translate(789.4px,21.4px)}}.b.b12{animation-name:b12}@keyframes b13{31.99%{opacity:0;transform:translate(789.4px,149.4px)}32%{opacity:1;transform:translate(789.4px,149.4px)}33.04%{opacity:1;transform:translate(789.4px,37.4px)}33.05%,100%{opacity:0;transform:translate(789.4px,37.4px)}}.b.b13{animation-name:b13}@keyframes b14{30.66%{opacity:0;transform:translate(789.4px,149.4px)}30.67%{opacity:1;transform:translate(789.4px,149.4px)}31.26%{opacity:1;transform:translate(789.4px,85.4px)}31.27%,100%{opacity:0;transform:translate(789.4px,85.4px)}}.b.b14{animation-name:b14}@keyframes b15{64.43%{opacity:0;transform:translate(805.4px,149.4px)}64.44%{opacity:1;transform:translate(805.4px,149.4px)}65.78%{opacity:1;transform:translate(805.4px,5.4px)}65.79%,100%{opacity:0;transform:translate(805.4px,5.4px)}}.b.b15{animation-name:b15}@keyframes b16{35.55%{opacity:0;transform:translate(805.4px,149.4px)}35.56%{opacity:1;transform:translate(805.4px,149.4px)}36.74%{opacity:1;transform:translate(805.4px,21.4px)}36.75%,100%{opacity:0;transform:translate(805.4px,21.4px)}}.b.b16{animation-name:b16}@keyframes b17{32.43%{opacity:0;transform:translate(805.4px,149.4px)}32.44%{opacity:1;transform:translate(805.4px,149.4px)}33.48%{opacity:1;transform:translate(805.4px,37.4px)}33.49%,100%{opacity:0;transform:translate(805.4px,37.4px)}}.b.b17{animation-name:b17}@keyframes b18{56.88%{opacity:0;transform:translate(805.4px,149.4px)}56.89%{opacity:1;transform:translate(805.4px,149.4px)}57.78%{opacity:1;transform:translate(805.4px,53.4px)}57.79%,100%{opacity:0;transform:translate(805.4px,53.4px)}}.b.b18{animation-name:b18}@keyframes b19{55.55%{opacity:0;transform:translate(805.4px,149.4px)}55.56%{opacity:1;transform:translate(805.4px,149.4px)}56.3%{opacity:1;transform:translate(805.4px,69.4px)}56.31%,100%{opacity:0;transform:translate(805.4px,69.4px)}}.b.b19{animation-name:b19}@keyframes b1a{55.1%{opacity:0;transform:translate(805.4px,149.4px)}55.11%{opacity:1;transform:translate(805.4px,149.4px)}55.7%{opacity:1;transform:translate(805.4px,85.4px)}55.71%,100%{opacity:0;transform:translate(805.4px,85.4px)}}.b.b1a{animation-name:b1a}@keyframes b1b{54.66%{opacity:0;transform:translate(805.4px,149.4px)}54.67%{opacity:1;transform:translate(805.4px,149.4px)}55.11%{opacity:1;transform:translate(805.4px,101.4px)}55.12%,100%{opacity:0;transform:translate(805.4px,101.4px)}}.b.b1b{animation-name:b1b}@keyframes b1c{76.43%{opacity:0;transform:translate(821.4px,149.4px)}76.44%{opacity:1;transform:translate(821.4px,149.4px)}77.78%{opacity:1;transform:translate(821.4px,5.4px)}77.79%,100%{opacity:0;transform:translate(821.4px,5.4px)}}.b.b1c{animation-name:b1c}@keyframes b1d{58.21%{opacity:0;transform:translate(821.4px,149.4px)}58.22%{opacity:1;transform:translate(821.4px,149.4px)}59.41%{opacity:1;transform:translate(821.4px,21.4px)}59.42%,100%{opacity:0;transform:translate(821.4px,21.4px)}}.b.b1d{animation-name:b1d}@keyframes b1e{32.88%{opacity:0;transform:translate(821.4px,149.4px)}32.89%{opacity:1;transform:translate(821.4px,149.4px)}33.93%{opacity:1;transform:translate(821.4px,37.4px)}33.94%,100%{opacity:0;transform:translate(821.4px,37.4px)}}.b.b1e{animation-name:b1e}@keyframes b1f{55.99%{opacity:0;transform:translate(821.4px,149.4px)}56%{opacity:1;transform:translate(821.4px,149.4px)}56.74%{opacity:1;transform:translate(821.4px,69.4px)}56.75%,100%{opacity:0;transform:translate(821.4px,69.4px)}}.b.b1f{animation-name:b1f}@keyframes b1g{68.43%{opacity:0;transform:translate(821.4px,149.4px)}68.44%{opacity:1;transform:translate(821.4px,149.4px)}68.89%{opacity:1;transform:translate(821.4px,101.4px)}68.9%,100%{opacity:0;transform:translate(821.4px,101.4px)}}.b.b1g{animation-name:b1g}</style><rect class="c" x="2" y="2" rx="2" ry="2"/><rect class="c" x="2" y="18" rx="2" ry="2"/><rect class="c" x="2" y="34" rx="2" ry="2"/><rect class="c" x="2" y="50" rx="2" ry="2"/><rect class="c" x="2" y="66" rx="2" ry="2"/><rect class="c" x="2" y="82" rx="2" ry="2"/><rect class="c" x="2" y="98" rx="2" ry="2"/><rect class="c" x="18" y="2" rx="2" ry="2"/><rect class="c" x="18" y="18" rx="2" ry="2"/><rect class="c" x="18" y="34" rx="2" ry="2"/><rect class="c" x="18" y="50" rx="2" ry="2"/><rect class="c" x="18" y="66" rx="2" ry="2"/><rect class="c" x="18" y="82" rx="2" ry="2"/><rect class="c" x="18" y="98" rx="2" ry="2"/><rect class="c" x="34" y="2" rx="2" ry="2"/><rect class="c" x="34" y="18" rx="2" ry="2"/><rect class="c" x="34" y="34" rx="2" ry="2"/><rect class="c" x="34" y="50" rx="2" ry="2"/><rect class="c" x="34" y="66" rx="2" ry="2"/><rect class="c" x="34" y="82" rx="2" ry="2"/><rect class="c" x="34" y="98" rx="2" ry="2"/><rect class="c" x="50" y="2" rx="2" ry="2"/><rect class="c" x="50" y="18" rx="2" ry="2"/><rect class="c" x="50" y="34" rx="2" ry="2"/><rect class="c" x="50" y="50" rx="2" ry="2"/><rect class="c" x="50" y="66" rx="2" ry="2"/><rect class="c" x="50" y="82" rx="2" ry="2"/><rect class="c" x="50" y="98" rx="2" ry="2"/><rect class="c" x="66" y="2" rx="2" ry="2"/><rect class="c" x="66" y="18" rx="2" ry="2"/><rect class="c" x="66" y="34" rx="2" ry="2"/><rect class="c" x="66" y="50" rx="2" ry="2"/><rect class="c" x="66" y="66" rx="2" ry="2"/><rect class="c" x="66" y="82" rx="2" ry="2"/><rect class="c" x="66" y="98" rx="2" ry="2"/><rect class="c" x="82" y="2" rx="2" ry="2"/><rect class="c" x="82" y="18" rx="2" ry="2"/><rect class="c" x="82" y="34" rx="2" ry="2"/><rect class="c" x="82" y="50" rx="2" ry="2"/><rect class="c" x="82" y="66" rx="2" ry="2"/><rect class="c" x="82" y="82" rx="2" ry="2"/><rect class="c" x="82" y="98" rx="2" ry="2"/><rect class="c" x="98" y="2" rx="2" ry="2"/><rect class="c" x="98" y="18" rx="2" ry="2"/><rect class="c" x="98" y="34" rx="2" ry="2"/><rect class="c" x="98" y="50" rx="2" ry="2"/><rect class="c" x="98" y="66" rx="2" ry="2"/><rect class="c" x="98" y="82" rx="2" ry="2"/><rect class="c" x="98" y="98" rx="2" ry="2"/><rect class="c" x="114" y="2" rx="2" ry="2"/><rect class="c" x="114" y="18" rx="2" ry="2"/><rect class="c" x="114" y="34" rx="2" ry="2"/><rect class="c" x="114" y="50" rx="2" ry="2"/><rect class="c" x="114" y="66" rx="2" ry="2"/><rect class="c" x="114" y="82" rx="2" ry="2"/><rect class="c" x="114" y="98" rx="2" ry="2"/><rect class="c" x="130" y="2" rx="2" ry="2"/><rect class="c" x="130" y="18" rx="2" ry="2"/><rect class="c" x="130" y="34" rx="2" ry="2"/><rect class="c" x="130" y="50" rx="2" ry="2"/><rect class="c" x="130" y="66" rx="2" ry="2"/><rect class="c" x="130" y="82" rx="2" ry="2"/><rect class="c" x="130" y="98" rx="2" ry="2"/><rect class="c" x="146" y="2" rx="2" ry="2"/><rect class="c" x="146" y="18" rx="2" ry="2"/><rect class="c" x="146" y="34" rx="2" ry="2"/><rect class="c" x="146" y="50" rx="2" ry="2"/><rect class="c" x="146" y="66" rx="2" ry="2"/><rect class="c" x="146" y="82" rx="2" ry="2"/><rect class="c" x="146" y="98" rx="2" ry="2"/><rect class="c" x="162" y="2" rx="2" ry="2"/><rect class="c" x="162" y="18" rx="2" ry="2"/><rect class="c" x="162" y="34" rx="2" ry="2"/><rect class="c" x="162" y="50" rx="2" ry="2"/><rect class="c" x="162" y="66" rx="2" ry="2"/><rect class="c" x="162" y="82" rx="2" ry="2"/><rect class="c" x="162" y="98" rx="2" ry="2"/><rect class="c" x="178" y="2" rx="2" ry="2"/><rect class="c" x="178" y="18" rx="2" ry="2"/><rect class="c" x="178" y="34" rx="2" ry="2"/><rect class="c" x="178" y="50" rx="2" ry="2"/><rect class="c" x="178" y="66" rx="2" ry="2"/><rect class="c" x="178" y="82" rx="2" ry="2"/><rect class="c" x="178" y="98" rx="2" ry="2"/><rect class="c" x="194" y="2" rx="2" ry="2"/><rect class="c" x="194" y="18" rx="2" ry="2"/><rect class="c" x="194" y="34" rx="2" ry="2"/><rect class="c" x="194" y="50" rx="2" ry="2"/><rect class="c" x="194" y="66" rx="2" ry="2"/><rect class="c" x="194" y="82" rx="2" ry="2"/><rect class="c" x="194" y="98" rx="2" ry="2"/><rect class="c" x="210" y="2" rx="2" ry="2"/><rect class="c" x="210" y="18" rx="2" ry="2"/><rect class="c" x="210" y="34" rx="2" ry="2"/><rect class="c" x="210" y="50" rx="2" ry="2"/><rect class="c" x="210" y="66" rx="2" ry="2"/><rect class="c" x="210" y="82" rx="2" ry="2"/><rect class="c" x="210" y="98" rx="2" ry="2"/><rect class="c" x="226" y="2" rx="2" ry="2"/><rect class="c" x="226" y="18" rx="2" ry="2"/><rect class="c" x="226" y="34" rx="2" ry="2"/><rect class="c" x="226" y="50" rx="2" ry="2"/><rect class="c" x="226" y="66" rx="2" ry="2"/><rect class="c" x="226" y="82" rx="2" ry="2"/><rect class="c" x="226" y="98" rx="2" ry="2"/><rect class="c" x="242" y="2" rx="2" ry="2"/><rect class="c" x="242" y="18" rx="2" ry="2"/><rect class="c" x="242" y="34" rx="2" ry="2"/><rect class="c" x="242" y="50" rx="2" ry="2"/><rect class="c" x="242" y="66" rx="2" ry="2"/><rect class="c" x="242" y="82" rx="2" ry="2"/><rect class="c" x="242" y="98" rx="2" ry="2"/><rect class="c" x="258" y="2" rx="2" ry="2"/><rect class="c" x="258" y="18" rx="2" ry="2"/><rect class="c" x="258" y="34" rx="2" ry="2"/><rect class="c" x="258" y="50" rx="2" ry="2"/><rect class="c" x="258" y="66" rx="2" ry="2"/><rect class="c" x="258" y="82" rx="2" ry="2"/><rect class="c" x="258" y="98" rx="2" ry="2"/><rect class="c" x="274" y="2" rx="2" ry="2"/><rect class="c" x="274" y="18" rx="2" ry="2"/><rect class="c" x="274" y="34" rx="2" ry="2"/><rect class="c" x="274" y="50" rx="2" ry="2"/><rect class="c" x="274" y="66" rx="2" ry="2"/><rect class="c" x="274" y="82" rx="2" ry="2"/><rect class="c" x="274" y="98" rx="2" ry="2"/><rect class="c" x="290" y="2" rx="2" ry="2"/><rect class="c" x="290" y="18" rx="2" ry="2"/><rect class="c" x="290" y="34" rx="2" ry="2"/><rect class="c" x="290" y="50" rx="2" ry="2"/><rect class="c" x="290" y="66" rx="2" ry="2"/><rect class="c" x="290" y="82" rx="2" ry="2"/><rect class="c" x="290" y="98" rx="2" ry="2"/><rect class="c" x="306" y="2" rx="2" ry="2"/><rect class="c" x="306" y="18" rx="2" ry="2"/><rect class="c" x="306" y="34" rx="2" ry="2"/><rect class="c" x="306" y="50" rx="2" ry="2"/><rect class="c" x="306" y="66" rx="2" ry="2"/><rect class="c" x="306" y="82" rx="2" ry="2"/><rect class="c" x="306" y="98" rx="2" ry="2"/><rect class="c" x="322" y="2" rx="2" ry="2"/><rect class="c" x="322" y="18" rx="2" ry="2"/><rect class="c" x="322" y="34" rx="2" ry="2"/><rect class="c" x="322" y="50" rx="2" ry="2"/><rect class="c" x="322" y="66" rx="2" ry="2"/><rect class="c" x="322" y="82" rx="2" ry="2"/><rect class="c" x="322" y="98" rx="2" ry="2"/><rect class="c" x="338" y="2" rx="2" ry="2"/><rect class="c" x="338" y="18" rx="2" ry="2"/><rect class="c" x="338" y="34" rx="2" ry="2"/><rect class="c" x="338" y="50" rx="2" ry="2"/><rect class="c" x="338" y="66" rx="2" ry="2"/><rect class="c" x="338" y="82" rx="2" ry="2"/><rect class="c" x="338" y="98" rx="2" ry="2"/><rect class="c" x="354" y="2" rx="2" ry="2"/><rect class="c" x="354" y="18" rx="2" ry="2"/><rect class="c" x="354" y="34" rx="2" ry="2"/><rect class="c" x="354" y="50" rx="2" ry="2"/><rect class="c" x="354" y="66" rx="2" ry="2"/><rect class="c" x="354" y="82" rx="2" ry="2"/><rect class="c" x="354" y="98" rx="2" ry="2"/><rect class="c" x="370" y="2" rx="2" ry="2"/><rect class="c" x="370" y="18" rx="2" ry="2"/><rect class="c" x="370" y="34" rx="2" ry="2"/><rect class="c" x="370" y="50" rx="2" ry="2"/><rect class="c" x="370" y="66" rx="2" ry="2"/><rect class="c" x="370" y="82" rx="2" ry="2"/><rect class="c" x="370" y="98" rx="2" ry="2"/><rect class="c" x="386" y="2" rx="2" ry="2"/><rect class="c" x="386" y="18" rx="2" ry="2"/><rect class="c" x="386" y="34" rx="2" ry="2"/><rect class="c" x="386" y="50" rx="2" ry="2"/><rect class="c" x="386" y="66" rx="2" ry="2"/><rect class="c" x="386" y="82" rx="2" ry="2"/><rect class="c" x="386" y="98" rx="2" ry="2"/><rect class="c" x="402" y="2" rx="2" ry="2"/><rect class="c" x="402" y="18" rx="2" ry="2"/><rect class="c" x="402" y="34" rx="2" ry="2"/><rect class="c" x="402" y="50" rx="2" ry="2"/><rect class="c" x="402" y="66" rx="2" ry="2"/><rect class="c" x="402" y="82" rx="2" ry="2"/><rect class="c" x="402" y="98" rx="2" ry="2"/><rect class="c" x="418" y="2" rx="2" ry="2"/><rect class="c" x="418" y="18" rx="2" ry="2"/><rect class="c" x="418" y="34" rx="2" ry="2"/><rect class="c" x="418" y="50" rx="2" ry="2"/><rect class="c" x="418" y="66" rx="2" ry="2"/><rect class="c" x="418" y="82" rx="2" ry="2"/><rect class="c" x="418" y="98" rx="2" ry="2"/><rect class="c" x="434" y="2" rx="2" ry="2"/><rect class="c" x="434" y="18" rx="2" ry="2"/><rect class="c" x="434" y="34" rx="2" ry="2"/><rect class="c" x="434" y="50" rx="2" ry="2"/><rect class="c" x="434" y="66" rx="2" ry="2"/><rect class="c" x="434" y="82" rx="2" ry="2"/><rect class="c" x="434" y="98" rx="2" ry="2"/><rect class="c" x="450" y="2" rx="2" ry="2"/><rect class="c" x="450" y="18" rx="2" ry="2"/><rect class="c" x="450" y="34" rx="2" ry="2"/><rect class="c" x="450" y="50" rx="2" ry="2"/><rect class="c" x="450" y="66" rx="2" ry="2"/><rect class="c" x="450" y="82" rx="2" ry="2"/><rect class="c" x="450" y="98" rx="2" ry="2"/><rect class="c" x="466" y="2" rx="2" ry="2"/><rect class="c" x="466" y="18" rx="2" ry="2"/><rect class="c" x="466" y="34" rx="2" ry="2"/><rect class="c" x="466" y="50" rx="2" ry="2"/><rect class="c" x="466" y="66" rx="2" ry="2"/><rect class="c" x="466" y="82" rx="2" ry="2"/><rect class="c" x="466" y="98" rx="2" ry="2"/><rect class="c" x="482" y="2" rx="2" ry="2"/><rect class="c" x="482" y="18" rx="2" ry="2"/><rect class="c" x="482" y="34" rx="2" ry="2"/><rect class="c" x="482" y="50" rx="2" ry="2"/><rect class="c" x="482" y="66" rx="2" ry="2"/><rect class="c" x="482" y="82" rx="2" ry="2"/><rect class="c" x="482" y="98" rx="2" ry="2"/><rect class="c" x="498" y="2" rx="2" ry="2"/><rect class="c" x="498" y="18" rx="2" ry="2"/><rect class="c" x="498" y="34" rx="2" ry="2"/><rect class="c" x="498" y="50" rx="2" ry="2"/><rect class="c" x="498" y="66" rx="2" ry="2"/><rect class="c" x="498" y="82" rx="2" ry="2"/><rect class="c" x="498" y="98" rx="2" ry="2"/><rect class="c" x="514" y="2" rx="2" ry="2"/><rect class="c" x="514" y="18" rx="2" ry="2"/><rect class="c" x="514" y="34" rx="2" ry="2"/><rect class="c" x="514" y="50" rx="2" ry="2"/><rect class="c" x="514" y="66" rx="2" ry="2"/><rect class="c" x="514" y="82" rx="2" ry="2"/><rect class="c" x="514" y="98" rx="2" ry="2"/><rect class="c" x="530" y="2" rx="2" ry="2"/><rect class="c" x="530" y="18" rx="2" ry="2"/><rect class="c" x="530" y="34" rx="2" ry="2"/><rect class="c" x="530" y="50" rx="2" ry="2"/><rect class="c" x="530" y="66" rx="2" ry="2"/><rect class="c" x="530" y="82" rx="2" ry="2"/><rect class="c" x="530" y="98" rx="2" ry="2"/><rect class="c" x="546" y="2" rx="2" ry="2"/><rect class="c" x="546" y="18" rx="2" ry="2"/><rect class="c" x="546" y="34" rx="2" ry="2"/><rect class="c" x="546" y="50" rx="2" ry="2"/><rect class="c" x="546" y="66" rx="2" ry="2"/><rect class="c" x="546" y="82" rx="2" ry="2"/><rect class="c" x="546" y="98" rx="2" ry="2"/><rect class="c c0" x="562" y="2" rx="2" ry="2"/><rect class="c c1" x="562" y="18" rx="2" ry="2"/><rect class="c" x="562" y="34" rx="2" ry="2"/><rect class="c" x="562" y="50" rx="2" ry="2"/><rect class="c" x="562" y="66" rx="2" ry="2"/><rect class="c c2" x="562" y="82" rx="2" ry="2"/><rect class="c c3" x="562" y="98" rx="2" ry="2"/><rect class="c c4" x="578" y="2" rx="2" ry="2"/><rect class="c c5" x="578" y="18" rx="2" ry="2"/><rect class="c" x="578" y="34" rx="2" ry="2"/><rect class="c" x="578" y="50" rx="2" ry="2"/><rect class="c" x="578" y="66" rx="2" ry="2"/><rect class="c" x="578" y="82" rx="2" ry="2"/><rect class="c" x="578" y="98" rx="2" ry="2"/><rect class="c" x="594" y="2" rx="2" ry="2"/><rect class="c" x="594" y="18" rx="2" ry="2"/><rect class="c" x="594" y="34" rx="2" ry="2"/><rect class="c" x="594" y="50" rx="2" ry="2"/><rect class="c" x="594" y="66" rx="2" ry="2"/><rect class="c" x="594" y="82" rx="2" ry="2"/><rect class="c" x="594" y="98" rx="2" ry="2"/><rect class="c c6" x="610" y="2" rx="2" ry="2"/><rect class="c" x="610" y="18" rx="2" ry="2"/><rect class="c" x="610" y="34" rx="2" ry="2"/><rect class="c" x="610" y="50" rx="2" ry="2"/><rect class="c" x="610" y="66" rx="2" ry="2"/><rect class="c" x="610" y="82" rx="2" ry="2"/><rect class="c c7" x="610" y="98" rx="2" ry="2"/><rect class="c" x="626" y="2" rx="2" ry="2"/><rect class="c c8" x="626" y="18" rx="2" ry="2"/><rect class="c" x="626" y="34" rx="2" ry="2"/><rect class="c" x="626" y="50" rx="2" ry="2"/><rect class="c" x="626" y="66" rx="2" ry="2"/><rect class="c" x="626" y="82" rx="2" ry="2"/><rect class="c" x="626" y="98" rx="2" ry="2"/><rect class="c" x="642" y="2" rx="2" ry="2"/><rect class="c" x="642" y="18" rx="2" ry="2"/><rect class="c" x="642" y="34" rx="2" ry="2"/><rect class="c" x="642" y="50" rx="2" ry="2"/><rect class="c c9" x="642" y="66" rx="2" ry="2"/><rect class="c" x="642" y="82" rx="2" ry="2"/><rect class="c ca" x="642" y="98" rx="2" ry="2"/><rect class="c" x="658" y="2" rx="2" ry="2"/><rect class="c" x="658" y="18" rx="2" ry="2"/><rect class="c" x="658" y="34" rx="2" ry="2"/><rect class="c" x="658" y="50" rx="2" ry="2"/><rect class="c" x="658" y="66" rx="2" ry="2"/><rect class="c" x="658" y="82" rx="2" ry="2"/><rect class="c" x="658" y="98" rx="2" ry="2"/><rect class="c cb" x="674" y="2" rx="2" ry="2"/><rect class="c" x="674" y="18" rx="2" ry="2"/><rect class="c" x="674" y="34" rx="2" ry="2"/><rect class="c" x="674" y="50" rx="2" ry="2"/><rect class="c cc" x="674" y="66" rx="2" ry="2"/><rect class="c cd" x="674" y="82" rx="2" ry="2"/><rect class="c ce" x="674" y="98" rx="2" ry="2"/><rect class="c cf" x="690" y="2" rx="2" ry="2"/><rect class="c cg" x="690" y="18" rx="2" ry="2"/><rect class="c ch" x="690" y="34" rx="2" ry="2"/><rect class="c" x="690" y="50" rx="2" ry="2"/><rect class="c ci" x="690" y="66" rx="2" ry="2"/><rect class="c cj" x="690" y="82" rx="2" ry="2"/><rect class="c ck" x="690" y="98" rx="2" ry="2"/><rect class="c" x="706" y="2" rx="2" ry="2"/><rect class="c" x="706" y="18" rx="2" ry="2"/><rect class="c cl" x="706" y="34" rx="2" ry="2"/><rect class="c cm" x="706" y="50" rx="2" ry="2"/><rect class="c cn" x="706" y="66" rx="2" ry="2"/><rect class="c" x="706" y="82" rx="2" ry="2"/><rect class="c" x="706" y="98" rx="2" ry="2"/><rect class="c" x="722" y="2" rx="2" ry="2"/><rect class="c" x="722" y="18" rx="2" ry="2"/><rect class="c co" x="722" y="34" rx="2" ry="2"/><rect class="c" x="722" y="50" rx="2" ry="2"/><rect class="c" x="722" y="66" rx="2" ry="2"/><rect class="c cp" x="722" y="82" rx="2" ry="2"/><rect class="c cq" x="722" y="98" rx="2" ry="2"/><rect class="c cr" x="738" y="2" rx="2" ry="2"/><rect class="c cs" x="738" y="18" rx="2" ry="2"/><rect class="c ct" x="738" y="34" rx="2" ry="2"/><rect class="c cu" x="738" y="50" rx="2" ry="2"/><rect class="c cv" x="738" y="66" rx="2" ry="2"/><rect class="c" x="738" y="82" rx="2" ry="2"/><rect class="c" x="738" y="98" rx="2" ry="2"/><rect class="c cw" x="754" y="2" rx="2" ry="2"/><rect class="c" x="754" y="18" rx="2" ry="2"/><rect class="c cx" x="754" y="34" rx="2" ry="2"/><rect class="c" x="754" y="50" rx="2" ry="2"/><rect class="c" x="754" y="66" rx="2" ry="2"/><rect class="c cy" x="754" y="82" rx="2" ry="2"/><rect class="c" x="754" y="98" rx="2" ry="2"/><rect class="c" x="770" y="2" rx="2" ry="2"/><rect class="c" x="770" y="18" rx="2" ry="2"/><rect class="c cz" x="770" y="34" rx="2" ry="2"/><rect class="c" x="770" y="50" rx="2" ry="2"/><rect class="c" x="770" y="66" rx="2" ry="2"/><rect class="c" x="770" y="82" rx="2" ry="2"/><rect class="c c10" x="770" y="98" rx="2" ry="2"/><rect class="c c11" x="786" y="2" rx="2" ry="2"/><rect class="c c12" x="786" y="18" rx="2" ry="2"/><rect class="c c13" x="786" y="34" rx="2" ry="2"/><rect class="c" x="786" y="50" rx="2" ry="2"/><rect class="c" x="786" y="66" rx="2" ry="2"/><rect class="c c14" x="786" y="82" rx="2" ry="2"/><rect class="c" x="786" y="98" rx="2" ry="2"/><rect class="c c15" x="802" y="2" rx="2" ry="2"/><rect class="c c16" x="802" y="18" rx="2" ry="2"/><rect class="c c17" x="802" y="34" rx="2" ry="2"/><rect class="c c18" x="802" y="50" rx="2" ry="2"/><rect class="c c19" x="802" y="66" rx="2" ry="2"/><rect class="c c1a" x="802" y="82" rx="2" ry="2"/><rect class="c c1b" x="802" y="98" rx="2" ry="2"/><rect class="c c1c" x="818" y="2" rx="2" ry="2"/><rect class="c c1d" x="818" y="18" rx="2" ry="2"/><rect class="c c1e" x="818" y="34" rx="2" ry="2"/><rect class="c" x="818" y="50" rx="2" ry="2"/><rect class="c c1f" x="818" y="66" rx="2" ry="2"/><rect class="c" x="818" y="82" rx="2" ry="2"/><rect class="c c1g" x="818" y="98" rx="2" ry="2"/><rect class="c" x="834" y="2" rx="2" ry="2"/><path class="p" d="M236,0 L231,105 L194,111 L194,317 L175,317 L171,212 L123,217 L123,352 L91,354 L86,388 L69,387 L68,286 L21,283 L17,436 L86,441 L93,476 L157,476 L163,511 L208,510 L212,476 L229,477 L234,511 L279,510 L283,476 L300,477 L303,510 L348,511 L354,476 L418,476 L425,441 L493,438 L494,287 L443,286 L442,387 L425,388 L420,354 L388,352 L388,217 L340,212 L336,317 L317,317 L317,111 L283,105 L283,4 Z"/><rect class="b b0" width="5.1" height="5.1" rx="0.8" ry="0.8"/><rect class="b b1" width="5.1" height="5.1" rx="0.8" ry="0.8"/><rect class="b b2" width="5.1" height="5.1" rx="0.8" ry="0.8"/><rect class="b b3" width="5.1" height="5.1" rx="0.8" ry="0.8"/><rect class="b b4" width="5.1" height="5.1" rx="0.8" ry="0.8"/><rect class="b b5" width="5.1" height="5.1" rx="0.8" ry="0.8"/><rect class="b b6" width="5.1" height="5.1" rx="0.8" ry="0.8"/><rect class="b b7" width="5.1" height="5.1" rx="0.8" ry="0.8"/><rect class="b b8" width="5.1" height="5.1" rx="0.8" ry="0.8"/><rect class="b b9" width="5.1" height="5.1" rx="0.8" ry="0.8"/><rect class="b ba" width="5.1" height="5.1" rx="0.8" ry="0.8"/><rect class="b bb" width="5.1" height="5.1" rx="0.8" ry="0.8"/><rect class="b bc" width="5.1" height="5.1" rx="0.8" ry="0.8"/><rect class="b bd" width="5.1" height="5.1" rx="0.8" ry="0.8"/><rect class="b be" width="5.1" height="5.1" rx="0.8" ry="0.8"/><rect class="b bf" width="5.1" height="5.1" rx="0.8" ry="0.8"/><rect class="b bg" width="5.1" height="5.1" rx="0.8" ry="0.8"/><rect class="b bh" width="5.1" height="5.1" rx="0.8" ry="0.8"/><rect class="b bi" width="5.1" height="5.1" rx="0.8" ry="0.8"/><rect class="b bj" width="5.1" height="5.1" rx="0.8" ry="0.8"/><rect class="b bk" width="5.1" height="5.1" rx="0.8" ry="0.8"/><rect class="b bl" width="5.1" height="5.1" rx="0.8" ry="0.8"/><rect class="b bm" width="5.1" height="5.1" rx="0.8" ry="0.8"/><rect class="b bn" width="5.1" height="5.1" rx="0.8" ry="0.8"/><rect class="b bo" width="5.1" height="5.1" rx="0.8" ry="0.8"/><rect class="b bp" width="5.1" height="5.1" rx="0.8" ry="0.8"/><rect class="b bq" width="5.1" height="5.1" rx="0.8" ry="0.8"/><rect class="b br" width="5.1" height="5.1" rx="0.8" ry="0.8"/><rect class="b bs" width="5.1" height="5.1" rx="0.8" ry="0.8"/><rect class="b bt" width="5.1" height="5.1" rx="0.8" ry="0.8"/><rect class="b bu" width="5.1" height="5.1" rx="0.8" ry="0.8"/><rect class="b bv" width="5.1" height="5.1" rx="0.8" ry="0.8"/><rect class="b bw" width="5.1" height="5.1" rx="0.8" ry="0.8"/><rect class="b bx" width="5.1" height="5.1" rx="0.8" ry="0.8"/><rect class="b by" width="5.1" height="5.1" rx="0.8" ry="0.8"/><rect class="b bz" width="5.1" height="5.1" rx="0.8" ry="0.8"/><rect class="b b10" width="5.1" height="5.1" rx="0.8" ry="0.8"/><rect class="b b11" width="5.1" height="5.1" rx="0.8" ry="0.8"/><rect class="b b12" width="5.1" height="5.1" rx="0.8" ry="0.8"/><rect class="b b13" width="5.1" height="5.1" rx="0.8" ry="0.8"/><rect class="b b14" width="5.1" height="5.1" rx="0.8" ry="0.8"/><rect class="b b15" width="5.1" height="5.1" rx="0.8" ry="0.8"/><rect class="b b16" width="5.1" height="5.1" rx="0.8" ry="0.8"/><rect class="b b17" width="5.1" height="5.1" rx="0.8" ry="0.8"/><rect class="b b18" width="5.1" height="5.1" rx="0.8" ry="0.8"/><rect class="b b19" width="5.1" height="5.1" rx="0.8" ry="0.8"/><rect class="b b1a" width="5.1" height="5.1" rx="0.8" ry="0.8"/><rect class="b b1b" width="5.1" height="5.1" rx="0.8" ry="0.8"/><rect class="b b1c" width="5.1" height="5.1" rx="0.8" ry="0.8"/><rect class="b b1d" width="5.1" height="5.1" rx="0.8" ry="0.8"/><rect class="b b1e" width="5.1" height="5.1" rx="0.8" ry="0.8"/><rect class="b b1f" width="5.1" height="5.1" rx="0.8" ry="0.8"/><rect class="b b1g" width="5.1" height="5.1" rx="0.8" ry="0.8"/></svg>